<?xml version="1.0" encoding="UTF-8"?>
<svg id="Layer_1" data-name="Layer 1" xmlns="http://www.w3.org/2000/svg" viewBox="0 0 180 180">
  <defs>
    <style>
      .cls-1 {
        fill: #61a5f5;
      }

      .cls-2 {
        fill: #325780;
      }

      .cls-3 {
        opacity: .8;
      }
    </style>
  </defs>
  <g class="cls-3">
    <path class="cls-1" d="M90,170c-44.11,0-80-35.89-80-80S45.89,10,90,10s80,35.89,80,80-35.89,80-80,80Z"/>
    <path class="cls-2" d="M90,20c38.6,0,70,31.4,70,70s-31.4,70-70,70S20,128.6,20,90,51.4,20,90,20M90,0C40.29,0,0,40.29,0,90s40.29,90,90,90,90-40.29,90-90S139.71,0,90,0h0Z"/>
  </g>
</svg>