<?xml version="1.0" encoding="UTF-8"?>
<svg id="Layer_1" data-name="Layer 1" xmlns="http://www.w3.org/2000/svg" xmlns:xlink="http://www.w3.org/1999/xlink" viewBox="50 25 185 185">
  <defs>
    <style>
      .cls-1 { fill: rgba(187, 213, 123, .2); stroke: #bbd57b; }
      .cls-1, .cls-2, .cls-3 { stroke-miterlimit: 10; stroke-width: 10px; }
      .cls-4 { fill: none; }
      .cls-2 { fill: rgba(214, 157, 177, .2); stroke: #d69db1; }
      .cls-3 { fill: rgba(255, 120, 0, .2); stroke: #ff7800; }
      .cls-5 { clip-path: url(#clippath); }
    </style>
    <clipPath id="clippath">
      <path class="cls-4" d="M231.31,117.05c0,49.71-40.29,90-90,90s-90-40.29-90-90c0-32.19,18.66-55.24,23.75-60.91.3-.33.55-.6.75-.81,2.98-3.17,28.25-29.15,65.5-28.28,42.42.99,90,36.57,90,90Z"/>
    </clipPath>
  </defs>
  <g class="cls-5">
    <path class="cls-1" d="M181.55,182.75s-1.68-3.29-1.32-7.51c.29-3.36,2.15-5.95,4.71-8.13-2.88-2.53-6.99-7.51-16.21-18.38-14.6-17.2-16.45-19.02-20.28-20.28-11.58-3.81-19.23,4.78-25.05,0-1.98-1.63-2.97-4.18-3.31-7.11-.43-.18-.85-.35-1.28-.56-4.35-2.16-3.83-3.97-13.2-13.2-8.23-8.11-9.55-7.62-11.12-11.12-1.26-2.79-1.32-5.11-.98-7.29-9.36-10.56-11.35-11.5-12.81-12.04-3.66-1.35-4.3-.32-20.1,0-12.5.26-13.68-.35-17.09,0-15.75,1.63-26.69,18.33-30.49,24.14-16.26,24.85-15.79,60.9,0,87.79,10.03,17.08,23.62,26,30.24,30.24,47.05,30.13,106.1,13.81,120.16,0,4.11-4.04,7.86-11.3,18.73-18.73,4.06-2.78,8.99-5.49,8.6-8.6-.41-3.28-6.31-3.55-9.21-9.21Z"/>
    <path class="cls-2" d="M69.48,42.79c1.71,5.31,3.15,9.82,6.51,14.8,7.9,11.71,15.66,10.14,18.5,18.5,2.76,8.12-3.65,12.24,0,20.37,1.58,3.5,2.9,3.02,11.12,11.12,9.38,9.23,8.86,11.04,13.2,13.2,8.95,4.46,18.95.67,20.72,0,.94-.36,13.67-5.39,17.09-17.09.46-1.59.51-2.45,0-15.12-.67-16.7-.85-17.79,0-20.32,2.19-6.51,8.03-13.13,15.38-15.38,8.63-2.64,12.08,2.96,20.48,0,8.41-2.97,12.37-11.19,13.29-13.29,3.45-7.84,2.48-16.67,0-21.98C195.47-4.45,143.49.81,114.76,3.72c-43.68,4.42-47.99,14.62-48.83,17.76-1.5,5.57,1.18,13.93,3.55,21.31Z"/>
    <path class="cls-3" d="M203.36,43.95c-.86,2.07.58,3.39,0,6.36-.93,4.77-5.73,7.09-9.66,9.66-11.86,7.75-8.72,13.09-20.09,20.09-2.33,1.44-8.34,5.06-16.72,6.18-8.66,1.16-10.46-1.61-16.47,0-10.91,2.92-16.14,15-17,17-2.96,6.84-6.02,20.26,0,25.21,5.82,4.78,13.47-3.81,25.05,0,3.83,1.26,5.68,3.08,20.28,20.28,14.92,17.58,16.45,19.76,21.08,21.08,3.68,1.05,4.32.13,22.85,0,11.88-.08,11.63.29,13.13,0,18.86-3.67,32.25-58.56,17.38-102.24-8.07-23.7-18.66-27.1-20.94-27.73-6.81-1.88-16.99-.45-18.87,4.11Z"/>
  </g>
</svg>